<svg height="512" viewBox="0 0 512 512" width="512" xmlns="http://www.w3.org/2000/svg"><g id="Two_Tone" data-name="Two Tone"><path d="m480.971 135.029-64-64a24 24 0 0 0 -33.942 33.942l23.03 23.029h-60.584c-60.225 0-112.05 50.772-126.03 123.468-4.8 24.96-15.807 47.194-30.993 62.609-14.131 14.342-30.695 21.923-47.901 21.923h-92.551a24 24 0 0 0 0 48h92.551c60.224 0 112.05-50.772 126.031-123.468 4.8-24.96 15.806-47.195 30.993-62.609 14.13-14.342 30.694-21.923 47.9-21.923h60.584l-23.03 23.029a24 24 0 0 0 33.942 33.942l64-64a24 24 0 0 0 0-33.942z" fill="#2096f3"/><path d="m480.971 343.029-64-64a24 24 0 0 0 -33.942 33.942l23.03 23.029h-60.584c-17.206 0-33.77-7.581-47.9-21.923-15.187-15.415-26.194-37.649-30.993-62.609-13.982-72.697-65.807-123.468-126.031-123.468h-92.551a24 24 0 0 0 0 48h92.551c17.206 0 33.77 7.581 47.9 21.923 15.186 15.414 26.193 37.649 30.993 62.609 13.981 72.696 65.806 123.468 126.031 123.468h60.584l-23.03 23.029a24 24 0 0 0 33.942 33.942l64-64a24 24 0 0 0 0-33.942z" fill="#ffc108"/><path d="m422.64 273.365a32 32 0 0 0 -45.256 45.257l9.373 9.378h-41.272c-15.016 0-29.61-6.756-42.2-19.539-12.865-13.058-22.5-31.522-27.516-52.464 5.011-20.942 14.651-39.406 27.516-52.464 12.593-12.783 27.187-19.539 42.2-19.539h41.272l-9.373 9.373a32 32 0 1 0 45.256 45.257l64-64a32.038 32.038 0 0 0 0-45.257l-64-64a32 32 0 0 0 -45.256 45.258l9.373 9.373h-41.272c-40.339 0-77.08 21.17-102.456 55.917-25.377-34.753-62.13-55.917-102.474-55.917h-92.555a32 32 0 1 0 0 64h92.554c15.016 0 29.609 6.756 42.2 19.539 12.865 13.058 22.5 31.523 27.517 52.464-5.012 20.941-14.652 39.406-27.517 52.464-12.59 12.774-27.183 19.535-42.199 19.535h-92.555a32 32 0 0 0 0 64h92.554c40.34 0 77.073-21.179 102.447-55.929 25.379 34.757 62.136 55.929 102.484 55.929h41.272l-9.373 9.373a32 32 0 1 0 45.256 45.257l64-64a32.038 32.038 0 0 0 0-45.257zm-77.155-137.378h60.586a8 8 0 0 0 5.657-13.657l-23.028-23.03a16 16 0 0 1 22.628-22.629l64 64a16 16 0 0 1 0 22.629l-64 64a16 16 0 1 1 -22.628-22.624l23.03-23.03a8 8 0 0 0 -5.657-13.657h-60.588c-19.4 0-37.933 8.406-53.6 24.309a117.588 117.588 0 0 0 -23.214 34.868 183.355 183.355 0 0 0 -16.219-36.829c22.499-33.656 56.096-54.35 93.033-54.35zm-204.93 240.013h-92.555a16 16 0 1 1 0-32h92.554c19.4 0 37.932-8.406 53.6-24.309a117.558 117.558 0 0 0 23.217-34.858 183.288 183.288 0 0 0 16.206 36.8c-22.496 33.657-56.084 54.367-93.022 54.367zm334.773-4.686-64 64a16 16 0 1 1 -22.628-22.63l23.03-23.03a8 8 0 0 0 -5.659-13.654h-60.586c-56.335 0-104.932-48.106-118.178-116.983-5.095-26.5-16.868-50.188-33.151-66.716-15.669-15.9-34.2-24.309-53.6-24.309h-92.556a16 16 0 1 1 0-32h92.554c56.335 0 104.932 48.106 118.178 116.983 5.095 26.495 16.868 50.188 33.151 66.715 15.668 15.9 34.2 24.31 53.6 24.31h60.586a8 8 0 0 0 5.657-13.657l-23.03-23.03a16 16 0 0 1 22.628-22.629l64 64a16 16 0 0 1 0 22.629z" fill="#0d47a0"/></g></svg>